<svg id="Layer_1" data-name="Layer 1" xmlns="http://www.w3.org/2000/svg" viewBox="0 0 400 400"><defs><style>.cls-1{fill:none;}.cls-2{fill:#333;}.cls-3{fill:#fff;}</style></defs><rect class="cls-1" width="400" height="400"/><path class="cls-2" d="M161.74,209.63H62.62a17.52,17.52,0,0,0-17.5,17.5v99.12a17.52,17.52,0,0,0,17.5,17.5h99.12a17.52,17.52,0,0,0,17.5-17.5V227.13A17.52,17.52,0,0,0,161.74,209.63ZM159,245.3c-16.38,22.85-32.22,46.55-47.06,70.43a6.84,6.84,0,0,1-5.77,3.09h-.36a5.52,5.52,0,0,1-4.85-3.13l-36.87-75.6a6.59,6.59,0,0,1,3.27-8.93c2.6-1.27,6-1,7.73,2.59l32.06,65.73c13-20.52,26.79-40.92,40.94-60.66a6.35,6.35,0,0,1,5.28-2.78,7.43,7.43,0,0,1,4.29,1.4A5.35,5.35,0,0,1,159,245.3Z"/><path class="cls-2" d="M161,59.44H61.83a17.52,17.52,0,0,0-17.5,17.5v99.12a17.52,17.52,0,0,0,17.5,17.5H161a17.52,17.52,0,0,0,17.5-17.5V76.94A17.52,17.52,0,0,0,161,59.44ZM159,97.19c-16.38,22.85-32.22,46.55-47.06,70.43a6.84,6.84,0,0,1-5.77,3.09h-.36a5.52,5.52,0,0,1-4.85-3.13L64.09,92A6.59,6.59,0,0,1,67.36,83c2.6-1.27,6-1,7.73,2.59l32.06,65.74c13-20.53,26.79-40.93,40.94-60.67a6.35,6.35,0,0,1,5.28-2.78,7.43,7.43,0,0,1,4.29,1.4A5.35,5.35,0,0,1,159,97.19Z"/><path class="cls-3" d="M159,97.19c-16.38,22.85-32.22,46.55-47.06,70.43a6.84,6.84,0,0,1-5.77,3.09h-.36a5.52,5.52,0,0,1-4.85-3.13L64.09,92A6.59,6.59,0,0,1,67.36,83c2.6-1.27,6-1,7.73,2.59l32.06,65.74c13-20.53,26.79-40.93,40.94-60.67a6.35,6.35,0,0,1,5.28-2.78,7.43,7.43,0,0,1,4.29,1.4A5.35,5.35,0,0,1,159,97.19Z"/><path class="cls-3" d="M159,245.3c-16.38,22.85-32.22,46.55-47.06,70.43a6.84,6.84,0,0,1-5.77,3.09h-.36a5.52,5.52,0,0,1-4.85-3.13l-36.87-75.6a6.59,6.59,0,0,1,3.27-8.93c2.6-1.27,6-1,7.73,2.59l32.06,65.73c13-20.52,26.79-40.92,40.94-60.66a6.35,6.35,0,0,1,5.28-2.78,7.43,7.43,0,0,1,4.29,1.4A5.35,5.35,0,0,1,159,245.3Z"/><rect class="cls-2" x="200" y="65.8" width="150.88" height="28.93" rx="6"/><rect class="cls-2" x="200" y="112.03" width="150.88" height="28.93" rx="6"/><rect class="cls-2" x="200" y="158.25" width="150.88" height="28.93" rx="6"/><rect class="cls-2" x="200" y="216" width="150.88" height="28.93" rx="6"/><rect class="cls-2" x="200" y="262.22" width="150.88" height="28.93" rx="6"/><rect class="cls-2" x="200" y="308.45" width="150.88" height="28.93" rx="6"/></svg>