<svg xmlns="http://www.w3.org/2000/svg" viewBox="0 0 740.88 548.19"><defs><style>.cls-1,.cls-2{fill:#fff;}.cls-1{stroke:#fff;stroke-miterlimit:10;stroke-width:0.99px;}</style></defs><g id="Layer_3" data-name="Layer 3"><path class="cls-1" d="M93.51,227c26.76-11.19,118.58-26.67,175.35-15.73,1.51.29,2.12-2,.77-2.73L169.31,153.18c-11.15-6.15-22.56-12.5-30.8-22.14-7.21-8.44-11.58-20.06-9.38-30.68a1.49,1.49,0,0,1,2.83-.26c8.74,22.36,30,38.41,52.48,48,23.86,10.18,49.78,14.63,74.41,22.83,22.44,7.47,44.78,18.95,58.76,37.54a1.48,1.48,0,0,0,2.63-1.19,150.85,150.85,0,0,0-50-84.43,154,154,0,0,0-99.16-35.94c-23.55.12-45.68-2-70.36-.89a1.4,1.4,0,0,1-.3-2.77C147.58,75.19,197,73,242,88.63c39.89,13.88,75.68,44.26,89.54,83a1.47,1.47,0,0,0,2.84-.71,401.73,401.73,0,0,0-17-73.84,1.47,1.47,0,0,1,2.41-1.52c22.72,21.91,26.45,55.14,36.46,84.36a1.48,1.48,0,0,0,2.79,0c9-25.27,30.71-38.28,51.77-54.75,18.56-14.52,69.7-46.08,49.79-27.06-15.39,14.69-45.21,32.38-56.51,50.35-28.26,44.91-15.87,58.35-14.82,57.36,39.26-36.66,91-60,144.72-65.5a1.46,1.46,0,0,1,.65,2.82C495.36,157.48,455,175,432,208.54a1.47,1.47,0,0,0,1.87,2.15c38.63-19.63,122.71-7.07,123.43,9.93-10.18-14.41-63.21-18.89-92.07-9.29s-43.3,22.58-55.13,50.34c-15.49,36.33-14.37,234,43.47,286h-237c73.27-35.11,81.91-182.18,71.15-298.81-3.09-33.43-46.9-30.64-71.06-29-19.34,1.31-38.73,1.08-58.09,2.21-21.71,1.27-43.07,5-64.66,6.62A.91.91,0,0,1,93.51,227Z"/><path class="cls-2" d="M477.41,136.61c5.51-8.76,6.82-20.17,3.55-30.62-6.48,1.89-14.67,4.68-21.62,9.4-5,3.42-11.46,9.32-13.8,18.1-1.37,5.15-1.23,14.46,2.58,18.55a6.59,6.59,0,0,0,5.69,2.05c4.32-.4,9.18-3.11,13.48-6.55A47.58,47.58,0,0,0,477.41,136.61Z"/><path class="cls-2" d="M518,130.16A35.72,35.72,0,0,0,528,104.63c-5.75.69-13.12,1.89-19.92,4.91-4.9,2.19-11.57,6.3-15.55,13.43-2.32,4.18-4.38,12.11-2.21,16.13a4.83,4.83,0,0,0,4.18,2.56c3.63.27,8.25-1.34,12.58-3.65A47.31,47.31,0,0,0,518,130.16Z"/><path class="cls-2" d="M521.5,69.86a47.27,47.27,0,0,0,1.58-46.39c-12.44,7.51-26.44,16-35.73,28.47-4.22,5.65-12.81,24.74-9.6,34.47a7.83,7.83,0,0,0,5.39,5.36C496.61,95.8,515.55,79.41,521.5,69.86Z"/><path class="cls-2" d="M567.86,73.29a45.28,45.28,0,0,1,48.51,2.82c-9.13,13.63-19.48,29-33.4,38.46-6.34,4.31-27.13,12.34-36.93,7.65a8.77,8.77,0,0,1-5-6.77C538.22,99.47,557.29,79.22,567.86,73.29Z"/><path class="cls-2" d="M471.94,48.05c2.8-16.72-2.3-34.61-13.65-48-8.51,7.12-19,16.68-26.49,28.32-5.38,8.4-11.37,21.49-9.43,36.14,1.14,8.57,7.1,22.36,15.33,26a10.57,10.57,0,0,0,9.78-.69c6.2-3.45,11.79-10.71,16.09-18.68A81.05,81.05,0,0,0,471.94,48.05Z"/><path class="cls-2" d="M367.54,24.3a53,53,0,0,0,.3,52.09c6.37,10.91,27.09,29.9,42.34,25.8a8.74,8.74,0,0,0,6.21-5.85c3.92-10.81-5.12-32.49-9.68-39C396.7,43.12,381.25,33.11,367.54,24.3Z"/><path class="cls-2" d="M355.86,83.42a44.1,44.1,0,0,0-3.24,33.72c2.63,8.34,11,22.32,19.33,25.79a6,6,0,0,0,6-.46c4.64-3.22,6.81-13.09,6.6-19-.36-10.08-5.4-18.33-9.57-23.48C369.24,92.85,361.8,87.4,355.86,83.42Z"/><path class="cls-2" d="M332.59,95.38c6-1.5,12.1-10.83,14.16-17,3.54-10.51,1.55-21-.74-27.88-3.17-9.6-8.71-18.09-13.29-24.49a48.47,48.47,0,0,0-16.41,33.45c-.53,9.61,2.7,27.26,9.89,34.05A6.58,6.58,0,0,0,332.59,95.38Z"/><path class="cls-2" d="M228.3,79.46c-6-1.5-12.1-10.83-14.16-17-3.54-10.51-1.55-21,.74-27.88,3.17-9.6,8.71-18.09,13.29-24.49a48.47,48.47,0,0,1,16.41,33.45c.53,9.61-2.7,27.26-9.89,34.05A6.58,6.58,0,0,1,228.3,79.46Z"/><path class="cls-2" d="M246.19,129.84a48,48,0,0,0-35.59,9.72c5.37,5.64,12.59,12.61,21.34,17.48,6.29,3.52,16.09,7.4,27,5.93,6.36-.87,16.56-5,19.14-10.6a6.51,6.51,0,0,0-.61-6.56C272.18,137.54,255.62,131.12,246.19,129.84Z"/><path class="cls-2" d="M224.16,116.28c-5.1,7.18-20.28,12.2-28.82,12.92a43.24,43.24,0,0,1-31.54-10.38c5.08-4.82,11.9-10.75,20-14.73,5.83-2.87,14.81-5.91,24.52-4.09C214,101.07,223,105.27,225,110.41A5.84,5.84,0,0,1,224.16,116.28Z"/><path class="cls-2" d="M610.48,228.19A47.67,47.67,0,0,0,595,224.81c-9.68-.59-20.1,1.37-24.37,8.64a10,10,0,0,0-.61,9.06c1.59,4.15,5.45,8.22,9.85,11.55a47,47,0,0,0,13,7.09c14,4.49,29.43,2.05,41.4-.64A41,41,0,0,0,610.48,228.19Z"/><path class="cls-2" d="M625.94,30.24a38.65,38.65,0,0,0-11.62,5.41C607.79,40,602,46.4,602.86,53.18a8.15,8.15,0,0,0,4,6.14c3.06,1.9,7.55,2.62,12,2.61a38.15,38.15,0,0,0,11.82-1.79c11.22-4,20-13.13,26.36-20.74A33.23,33.23,0,0,0,625.94,30.24Z"/><path class="cls-2" d="M576.89,179.28A43,43,0,0,0,562.71,178c-8.71.57-17.8,3.49-20.79,10.47a9,9,0,0,0,.47,8.16c1.89,3.52,5.79,6.72,10.1,9.2a42.47,42.47,0,0,0,12.36,4.88c13,2.43,26.51-1.48,36.89-5.23A36.9,36.9,0,0,0,576.89,179.28Z"/><path class="cls-2" d="M178.11,63.61c3.95,3.55,12,7.74,16.92,6.39a5.38,5.38,0,0,0,3.8-3.89c2.4-7.74-2.42-21.61-6.65-28.24A39.73,39.73,0,0,0,167,20.65c-.68,6.41-1.2,14.68.4,22.8C168.56,49.3,171.36,57.54,178.11,63.61Z"/><path class="cls-2" d="M150.77,68.26a8,8,0,0,0,4.67-6.57c.66-7.47-7.6-18.11-13.81-22.91-10.63-8.2-23.36-10.08-32.18-10.2-12.23-.17-24.13,2.79-33.27,5.48a57.62,57.62,0,0,0,4.09,8.21A59.59,59.59,0,0,0,91.59,55.84,57.35,57.35,0,0,0,107.93,66.1C118.7,70.5,140.16,73.8,150.77,68.26Z"/><path class="cls-2" d="M82,159.92a8,8,0,0,0,1.88-7.84c-2.18-7.19-13.81-14-21.36-16.11-12.92-3.65-25.43-.64-33.66,2.54C17.41,142.91,7.47,150.1,0,156a55.75,55.75,0,0,0,6.85,6.08,59.33,59.33,0,0,0,15.56,8.37,57.49,57.49,0,0,0,19,3.43C53,174,74.18,169,82,159.92Z"/><path class="cls-2" d="M57.74,106.69c-7.57.12-14.77-1.17-19.55-3.11C21.94,97,10.25,80.25,8.29,60.92c15.18-5,34.75-10,52.43-5.19C70,58.25,85.51,68.12,89.47,79.39a15.54,15.54,0,0,1-.82,12.7C83.21,102.69,70,106.51,57.74,106.69Z"/><path class="cls-2" d="M306.39,61.12A53.46,53.46,0,0,0,300,44.55a46.09,46.09,0,0,0-39.92-20.83c-.93,13.75-1,31.3,6.38,46,3.85,7.7,14.82,20,24.57,22.1A11.28,11.28,0,0,0,301,89.63C308.31,83.66,308.7,71.75,306.39,61.12Z"/><path class="cls-2" d="M99.21,108.06c-11.41-2.14-23.65,1.57-32.86,10,4.83,6.33,11.33,14.18,19.27,19.76,5.72,4,14.64,8.51,24.66,7.12,5.86-.81,15.29-5.18,17.77-11.27a8.41,8.41,0,0,0-.44-7.25C122.93,117.13,107.84,109.68,99.21,108.06Z"/><path class="cls-2" d="M597.06,165.86a58.75,58.75,0,0,0,37.18-25.54c-8.47-4.34-19.6-9.48-31.66-11.6-8.68-1.52-21.54-2.07-33.52,4-7,3.56-17.09,12.45-17.84,19.92a7.93,7.93,0,0,0,3.34,7.32C564,167.41,585.66,168.16,597.06,165.86Z"/><path class="cls-2" d="M92.72,170.4c6.1,4.37,14.18,9.62,23.33,12.44,6.59,2,16.55,3.62,26.59-.38,5.87-2.32,14.78-8.82,16.23-15a6.7,6.7,0,0,0-1.76-6.39c-6.45-7-23.28-9.53-32.43-8.61C112.57,153.71,100.68,160.38,92.72,170.4Z"/><path class="cls-2" d="M202.67,193.83c-4.14,6-15.5,9.9-21.76,10.34-12,.82-23.78-4.14-32.77-8.63a33.58,33.58,0,0,1,25.22-21c8.72-1.54,27.43,1.29,30.61,12A8.22,8.22,0,0,1,202.67,193.83Z"/><path class="cls-2" d="M87.51,182.37c-12.55-4.56-26.67-2.86-37.64-.83a37.32,37.32,0,0,0,20.48,30.17c8.84,4.32,29.69,7,36.37-3.42a9.17,9.17,0,0,0,.86-8.21C105,192.43,94.07,184.76,87.51,182.37Z"/><path class="cls-2" d="M654,248.9c13.13,2.4,26.76-1.63,37.24-5.46A37.3,37.3,0,0,0,666,217.11c-9.44-2.79-30.45-2-35.28,9.44a9.16,9.16,0,0,0,.52,8.24C635,241.9,647.09,247.64,654,248.9Z"/><path class="cls-2" d="M569,64.55c11.3-7.12,18.62-19.31,23.74-29.23A37.33,37.33,0,0,0,556.31,33c-8.83,4.33-23.75,19.15-19.59,30.82a9.15,9.15,0,0,0,6,5.72C550.31,72.19,563.07,68.27,569,64.55Z"/><path class="cls-2" d="M50.6,253c-12.58,4.86-26.73,2.17-37.73-.77,1-15.16,9-28.89,20.55-35.06,8.87-4.75,29.77-7,36.46,5.78a12.9,12.9,0,0,1,.85,9.84C68.13,241.8,57.18,250.45,50.6,253Z"/><path class="cls-2" d="M163.4,272.8c-11.86,6.43-26.24,5.57-37.52,4.06-.95-15.17,5.28-29.82,15.91-37.4,8.19-5.84,28.64-10.73,36.9,1.09a12.89,12.89,0,0,1,2.1,9.65C179.36,259.47,169.6,269.45,163.4,272.8Z"/><path class="cls-2" d="M647.88,127c15.88-2.93,29.57-13.35,39.78-22.2a45.16,45.16,0,0,0-39.87-18.92c-11.87.9-35.28,10.86-35.84,25.85a11.06,11.06,0,0,0,4.13,9.09C623.48,127.25,639.57,128.56,647.88,127Z"/><path class="cls-2" d="M189.84,306.86c13.95-6.3,31.18-15.44,41.75-30.4,5.53-7.82,11.82-25,8.75-35.67a12.51,12.51,0,0,0-7.39-8.56c-15.7-6.54-37.06,12.82-43.64,24.6A51.16,51.16,0,0,0,189.84,306.86Z"/><path class="cls-2" d="M456,250.5c-3.52,11.73-3.93,24-3.85,33.5a54.58,54.58,0,0,0,9-1.69,59.33,59.33,0,0,0,16.86-7.61,56.93,56.93,0,0,0,13.63-12.45c7.2-9.14,16.26-28.86,13.84-40.59a7.91,7.91,0,0,0-5-6.28c-7-2.69-19.5,2.33-25.81,7C463.87,230.32,458.57,242.06,456,250.5Z"/><path class="cls-2" d="M95.17,281.53c-8.75,5.09-18.52,7.78-26.19,9.55a45.44,45.44,0,0,1-.37-7.56,49.06,49.06,0,0,1,2.87-15,47.09,47.09,0,0,1,7.38-13.35c6-7.55,20.07-18.63,30-18.94a6.52,6.52,0,0,1,6,2.84c3.51,5.11,1.88,16.12-.65,22.09C109.88,271.36,101.46,277.87,95.17,281.53Z"/><path class="cls-2" d="M497.14,187.36a5.35,5.35,0,0,0,1.36,5.27c3.57,3.61,12.66,4,17.86,2.87,8.87-1.9,15.4-7.66,19.31-12.16,5.43-6.24,9.09-13.68,11.69-19.57a39.76,39.76,0,0,0-30.4,2.41C510,169.82,498.91,179.46,497.14,187.36Z"/><path class="cls-2" d="M528.57,275.28a53.34,53.34,0,0,0,46.81,24c-.84-8.19-1.76-16.9-3.51-25.51a91.1,91.1,0,0,0-8.43-24.87c-3.77-7.07-19.2-25.1-30.73-26.5a8.88,8.88,0,0,0-8.1,2.94C514,237.24,521.64,264.57,528.57,275.28Z"/><path class="cls-2" d="M640.13,165.18c-10.68,2.34-30.81,9.61-30.48,20.44C610,197,638.2,205,646.73,205.81c16.84,1.68,37.53-7.3,43.22-25.24a40.06,40.06,0,0,0-10.16-9.15c-9.4-6-21.55-8.66-34.16-7.16C643.79,164.48,641.93,164.78,640.13,165.18Z"/><path class="cls-2" d="M691.07,161.43c-10.69-2.33-30.81-9.61-30.49-20.43.34-11.39,28.55-19.34,37.08-20.19,16.84-1.68,37.53,7.3,43.22,25.24a40.06,40.06,0,0,1-10.16,9.15c-9.39,6-21.55,8.66-34.16,7.16C694.72,162.14,692.87,161.83,691.07,161.43Z"/></g></svg>