<svg id="Layer_1" data-name="Layer 1" xmlns="http://www.w3.org/2000/svg" viewBox="0 0 512 512"><defs><style>.cls-1{fill:#333;}</style></defs><path class="cls-1" d="M465.51,371.58a20.37,20.37,0,0,0,20.32-20.32V316a20.37,20.37,0,0,0-20.32-20.31h-74V249.11H260.68V217h74A20.38,20.38,0,0,0,355,196.71V161.4a20.38,20.38,0,0,0-20.32-20.32h-74V102.57h74A20.38,20.38,0,0,0,355,82.25V46.94a20.38,20.38,0,0,0-20.32-20.32H178a20.38,20.38,0,0,0-20.32,20.32V82.25A20.38,20.38,0,0,0,178,102.57h74v38.51H178a20.38,20.38,0,0,0-20.32,20.32v35.31A20.38,20.38,0,0,0,178,217h74v32.08H120.51V291.3h-74a20.38,20.38,0,0,0-20.32,20.32v35.31a20.37,20.37,0,0,0,20.32,20.31h156.7a20.37,20.37,0,0,0,20.32-20.31V311.62a20.38,20.38,0,0,0-20.32-20.32h-74V257.78H382.83v37.86h-74A20.37,20.37,0,0,0,288.49,316v35.31a20.37,20.37,0,0,0,20.32,20.32h74v37.85h-74a20.38,20.38,0,0,0-20.32,20.32v35.31a20.38,20.38,0,0,0,20.32,20.32h156.7a20.38,20.38,0,0,0,20.32-20.32V429.75a20.38,20.38,0,0,0-20.32-20.32h-74V371.58Z"/></svg>