<svg id="Layer_1" data-name="Layer 1" xmlns="http://www.w3.org/2000/svg" viewBox="0 0 512 512"><defs><style>.cls-1{font-size:152.1px;font-family:Roboto-Bold, Roboto;font-weight:700;}.cls-1,.cls-3{fill:#fff;}.cls-2{fill:none;stroke:#fff;stroke-miterlimit:10;stroke-width:15px;}</style></defs><text class="cls-1" transform="translate(100.31 156.81)">Q&amp;A</text><rect class="cls-2" x="103.93" y="196.77" width="119.12" height="119.12" rx="10"/><path class="cls-3" d="M200.59,224Q179,254.1,159.19,285.4l-32.45-66.54c-3.3-6.77-13.39-.84-10.1,5.91l36.87,75.6c2,4.11,7.93,3.48,10.1,0q22.38-36,47.08-70.46C215.09,223.78,204.94,217.93,200.59,224Z"/><rect class="cls-3" x="256.4" y="227.47" width="150.88" height="10.06" rx="5.03"/><rect class="cls-3" x="256.4" y="249.18" width="150.88" height="10.06" rx="5.03"/><rect class="cls-3" x="256.4" y="270.88" width="150.88" height="10.06" rx="5.03"/><rect class="cls-2" x="104.72" y="350.15" width="119.12" height="119.12" rx="10"/><rect class="cls-3" x="257.19" y="380.86" width="150.88" height="10.06" rx="5.03"/><rect class="cls-3" x="257.19" y="402.56" width="150.88" height="10.06" rx="5.03"/></svg>