<svg id="Layer_1" data-name="Layer 1" xmlns="http://www.w3.org/2000/svg" viewBox="0 0 512 512"><defs><style>.cls-1{fill:#fff;}</style></defs><path class="cls-1" d="M465.51,371.59a20.39,20.39,0,0,0,20.32-20.32V316a20.39,20.39,0,0,0-20.32-20.32h-74v-46.5H260.67V217h74A20.39,20.39,0,0,0,355,196.72v-35.3a20.39,20.39,0,0,0-20.32-20.32h-74V102.58h74A20.39,20.39,0,0,0,355,82.26V47a20.39,20.39,0,0,0-20.32-20.32H178A20.36,20.36,0,0,0,157.67,47v35.3A20.36,20.36,0,0,0,178,102.57h74v38.52H178a20.36,20.36,0,0,0-20.31,20.32v35.3A20.36,20.36,0,0,0,178,217h74v32.09H120.49v42.19h-74a20.39,20.39,0,0,0-20.32,20.31V347a20.39,20.39,0,0,0,20.32,20.32H203.18A20.4,20.4,0,0,0,223.51,347V311.64a20.39,20.39,0,0,0-20.33-20.31h-74V257.79H382.84v37.86h-74A20.37,20.37,0,0,0,288.48,316v35.3a20.37,20.37,0,0,0,20.32,20.32h74v37.86h-74a20.39,20.39,0,0,0-20.32,20.32v35.3a20.39,20.39,0,0,0,20.32,20.32H465.5a20.37,20.37,0,0,0,20.32-20.32v-35.3a20.37,20.37,0,0,0-20.32-20.32h-74V371.57Z"/></svg>